<svg width="175" height="15" fill="none" xmlns="http://www.w3.org/2000/svg">
    <path d="M0 12.14V3.728h1.62V5.23c.35-.952 1.25-1.633 2.486-1.633 1.369 0 2.387.617 2.72 1.719.335-.954 1.436-1.724 2.738-1.724 1.82 0 2.954 1.252 2.954 3.207v5.34h-1.619V7.25c0-1.335-.667-2.236-1.786-2.236-1.285 0-2.053.901-2.053 2.236v4.89H5.442V7.25c0-1.335-.667-2.236-1.769-2.236-1.285 0-2.053.901-2.053 2.236v4.89H0ZM20.509 6.715v5.425h-1.62V10.77c-.4.901-1.469 1.502-2.737 1.502-1.72 0-2.854-1.034-2.854-2.537 0-1.619 1.286-2.62 3.272-2.62h1.752c.384 0 .568-.2.568-.5 0-1.019-.735-1.72-2.037-1.72-1.168 0-2.019.734-2.068 1.585h-1.504c.134-1.652 1.636-2.884 3.622-2.884 2.17-.005 3.606 1.247 3.606 3.118Zm-1.62 1.736v-.2h-2.17c-1.1 0-1.819.566-1.819 1.452 0 .768.635 1.285 1.57 1.285 1.535 0 2.42-.985 2.42-2.537ZM21.063 7.933c0-2.503 1.452-4.339 4.022-4.339 1.152 0 2.17.551 2.67 1.368V.206h1.62V12.14h-1.622v-1.252c-.5.835-1.535 1.385-2.653 1.385-2.588 0-4.038-1.835-4.038-4.34Zm6.81 0c0-1.752-1.019-2.92-2.588-2.92-1.552 0-2.57 1.168-2.57 2.92 0 1.753 1.018 2.921 2.57 2.921 1.567 0 2.585-1.166 2.585-2.92h.003ZM38.085 8.218H31.66c.133 1.585 1.168 2.67 2.637 2.67 1.235 0 2.036-.534 2.27-1.485.467.134 1.102.334 1.502.45-.467 1.486-1.886 2.42-3.772 2.42-2.604 0-4.223-2.052-4.223-4.39 0-2.352 1.47-4.288 4.056-4.288 2.603 0 3.99 1.85 3.99 3.988 0 .217-.018.484-.035.635Zm-1.602-1.185c-.1-1.286-.968-2.135-2.353-2.135-1.319 0-2.17.734-2.42 2.136l4.773-.001ZM40.787 7.933c0-2.52 1.82-4.339 4.34-4.339 2.52 0 4.323 1.82 4.323 4.34 0 2.52-1.803 4.34-4.323 4.34-2.52 0-4.34-1.82-4.34-4.34Zm7.01 0c0-1.719-1.085-2.92-2.67-2.92-1.602 0-2.688 1.201-2.688 2.92 0 1.72 1.086 2.921 2.688 2.921 1.585 0 2.67-1.201 2.67-2.92ZM50.092 12.14V3.728h1.619v1.485c.45-1.052 1.452-1.621 2.704-1.621 1.904 0 3.138 1.368 3.138 3.372v5.174h-1.62V7.283c0-1.335-.784-2.237-1.969-2.237-1.319 0-2.253 1.068-2.253 2.537v4.557h-1.62ZM99.901 8.959c-.471 0-.859.185-1.212.505-.324.327-.505.769-.505 1.23 0 .454.168.841.505 1.197.353.336.74.505 1.212.505s.859-.169 1.213-.505c.32-.354.505-.742.505-1.198a1.729 1.729 0 0 0-.497-1.225 1.718 1.718 0 0 0-1.22-.51ZM98.181 5.995h-1.465c-.943 0-1.448.707-1.448 1.886v4.26h-2.776V5.995h-1.18c-.942 0-1.447.707-1.447 1.886v4.26h-2.78v-8.42h2.78v1.28c.454-.993 1.077-1.28 2.003-1.28h3.402v1.28c.454-.993 1.078-1.28 2.004-1.28h.907v2.274ZM86.48 8.588h-5.793c.151.943.74 1.482 1.734 1.482.741 0 1.263-.303 1.432-.842l2.458.69c-.606 1.465-2.105 2.358-3.89 2.358-3.014 0-4.395-2.34-4.395-4.345 0-1.97 1.213-4.327 4.227-4.327 3.2 0 4.26 2.39 4.26 4.159 0 .388-.017.64-.033.825Zm-2.695-1.633c-.067-.724-.59-1.397-1.532-1.397-.876 0-1.398.387-1.566 1.397h3.098Zm-10.608 5.187h2.441l3.048-8.42H75.87L74.388 8.62l-1.515-4.898h-2.78l3.084 8.42Zm-11.384 0h2.762V5.995h2.626v6.146h2.745v-8.42h-5.371V3.2c0-.573.403-.926 1.043-.926h1.583V0h-2.035c-2.005 0-3.352 1.23-3.352 3.03v.692h-1.566v2.273h1.566l-.001 6.147ZM110.401 2.43c-3.082 0-5.505 2.613-5.505 6.063 0 3.288 2.32 5.534 5.593 5.534.969 0 1.776-.25 2.217-.455v-.778c-.485.308-1.321.543-2.143.543-2.98 0-4.903-2.026-4.903-4.859 0-3.097 2.026-5.329 4.741-5.329 2.76 0 4.653 1.835 4.653 4.243 0 1.864-.968 2.95-1.893 2.95-.558 0-.866-.396-.734-1.042l.763-3.582h-.778l-.191.896c-.234-.573-.939-1.042-1.805-1.042-1.63 0-2.877 1.497-2.877 3.185 0 1.453.88 2.275 2.114 2.275.983 0 1.717-.572 2.069-1.145.015.72.631 1.145 1.395 1.145 1.292 0 2.701-1.277 2.701-3.64 0-2.775-2.32-4.962-5.417-4.962Zm-.675 7.912c-.778 0-1.365-.543-1.365-1.541 0-1.38.895-2.554 2.114-2.554.807 0 1.453.499 1.453 1.424 0 1.423-1.013 2.671-2.202 2.671ZM121.784 4.22c-1.175 0-2.158.763-2.599 1.615V1.064h-.983V12h.983v-1.483c.338.749 1.204 1.703 2.599 1.703 1.893 0 3.346-1.526 3.346-4.007 0-2.598-1.453-3.993-3.346-3.993Zm-.059 7.149c-1.395 0-2.525-1.263-2.525-3.2 0-1.967 1.13-3.083 2.525-3.083 1.394 0 2.407 1.086 2.407 3.068s-1.013 3.215-2.407 3.215Zm8.236-7.002c-1.086 0-1.761.748-2.099 1.57V4.44h-.983V12h.983V8.066c0-1.63.896-2.716 2.085-2.716.337 0 .645.06.895.147v-.983a2.526 2.526 0 0 0-.881-.147Zm1.556 3.86c0 2.613 1.673 3.993 3.567 3.993 1.908 0 3.567-1.38 3.567-3.993 0-2.612-1.659-4.007-3.567-4.007-1.894 0-3.567 1.395-3.567 4.007Zm.983 0c0-2.113 1.278-3.14 2.584-3.14 1.336 0 2.569 1.027 2.569 3.14 0 2.1-1.233 3.142-2.569 3.142-1.306 0-2.584-1.042-2.584-3.142ZM146.849 12l-3.185-4.521 2.994-3.039h-1.277l-4.007 4.037V1.064h-.984V12h.984V9.783l1.6-1.629L145.719 12h1.13Zm.473-3.773c0 2.613 1.674 3.993 3.567 3.993 1.909 0 3.567-1.38 3.567-3.993 0-2.612-1.658-4.007-3.567-4.007-1.893 0-3.567 1.395-3.567 4.007Zm.984 0c0-2.113 1.277-3.14 2.583-3.14 1.336 0 2.569 1.027 2.569 3.14 0 2.1-1.233 3.142-2.569 3.142-1.306 0-2.583-1.042-2.583-3.142Zm7.464 0c0 2.613 1.673 3.993 3.567 3.993 1.908 0 3.567-1.38 3.567-3.993 0-2.612-1.659-4.007-3.567-4.007-1.894 0-3.567 1.395-3.567 4.007Zm.983 0c0-2.113 1.277-3.14 2.584-3.14 1.335 0 2.568 1.027 2.568 3.14 0 2.1-1.233 3.142-2.568 3.142-1.307 0-2.584-1.042-2.584-3.142Zm7.89 3.773h.984V1.064h-.984V12Zm5.86-7.78c-1.6 0-2.907.91-2.995 2.466h.954c.088-.983.955-1.659 1.982-1.659 1.013 0 1.938.5 1.923 1.777v.484l-1.292.132c-1.937.206-3.581.866-3.581 2.76 0 1.32 1.1 1.967 2.26 1.967 1.424 0 2.129-.602 2.598-1.498V12h.984V6.774c0-1.82-1.38-2.554-2.833-2.554Zm-.587 7.12c-.881 0-1.454-.514-1.454-1.248 0-1.057.984-1.732 2.496-1.88l1.394-.16v.645c0 1.718-1.013 2.642-2.436 2.642Z" fill="#fff"/>
</svg>
